<svg xmlns="http://www.w3.org/2000/svg" width="313" height="313" viewBox="0 0 313 313" version="1.1"><path d="M 70.250 43.745 C 68.463 44.635, 67 45.742, 67 46.206 C 67 47.778, 74.251 61.469, 78.012 67 C 80.070 70.025, 84.328 74.891, 87.476 77.814 C 94.379 84.225, 94.563 81.671, 85.024 111.824 C 81.253 123.746, 77.032 137.325, 75.645 142 C 74.257 146.675, 72.017 153.200, 70.667 156.500 C 69.316 159.800, 67.389 165.762, 66.384 169.750 L 64.557 177 60.934 177 C 55.966 177, 46.831 180.152, 41.904 183.567 C 29.052 192.473, 24.391 208.881, 30.845 222.500 C 41.156 244.261, 71.822 249.110, 90.464 231.926 L 94.748 227.978 103.624 230.124 C 110.208 231.716, 116.373 232.344, 127.500 232.557 C 137.071 232.740, 150.462 233.927, 164.500 235.839 C 176.600 237.486, 189.079 239.128, 192.231 239.487 C 199.442 240.308, 199.900 240.915, 208.554 261.143 C 212.168 269.589, 215.480 276.862, 215.916 277.304 C 216.531 277.928, 220.523 276.626, 224.785 274.411 C 224.942 274.329, 223.255 270.078, 221.037 264.963 C 218.819 259.848, 217.158 255.509, 217.347 255.320 C 217.535 255.131, 219.658 256.535, 222.064 258.438 L 226.438 261.900 229.178 258.700 C 232.540 254.775, 232.629 253.678, 229.750 251.691 C 227.696 250.272, 227.974 250.259, 232.953 251.532 C 235.953 252.299, 238.645 252.688, 238.937 252.397 C 239.931 251.402, 241.794 243.991, 241.146 243.605 C 240.791 243.394, 236.900 242.228, 232.500 241.014 C 228.100 239.799, 224.173 238.500, 223.773 238.126 C 223.373 237.752, 227.085 236.392, 232.023 235.104 C 236.960 233.816, 241 232.530, 241 232.247 C 241 231.742, 238.771 223.725, 238.503 223.266 C 238.428 223.138, 234.367 224.133, 229.478 225.478 C 224.590 226.823, 220.463 227.796, 220.307 227.640 C 220.151 227.484, 221.143 225.839, 222.512 223.984 C 223.880 222.129, 225 220.309, 225 219.939 C 225 219.569, 223.241 218.102, 221.091 216.679 L 217.183 214.092 215.515 216.296 C 213.875 218.464, 213.871 218.459, 215.276 216 C 216.061 214.625, 217.487 211.979, 218.445 210.119 L 220.186 206.739 226.843 213.342 L 233.500 219.946 236.750 217.400 C 238.537 216, 240 214.392, 240 213.826 C 240 213.261, 237.065 209.628, 233.478 205.754 C 229.892 201.880, 227.121 198.545, 227.322 198.344 C 227.523 198.143, 229.615 198.658, 231.970 199.489 C 234.325 200.320, 236.603 201, 237.032 201 C 237.461 201, 238.517 198.930, 239.380 196.399 C 240.884 191.984, 240.868 191.778, 238.985 191.286 C 235.622 190.406, 237.898 189, 242.684 189 L 247.250 189 246.625 185.875 C 246.281 184.156, 246 181.870, 246 180.795 C 246 178.937, 245.488 178.874, 235.750 179.522 L 225.500 180.204 233.225 174.852 C 237.474 171.909, 240.962 169.033, 240.975 168.462 C 240.989 167.891, 239.763 165.954, 238.250 164.156 L 235.500 160.888 228.192 166.053 C 224.173 168.894, 220.700 171.033, 220.475 170.808 C 220.249 170.583, 220.581 168.717, 221.212 166.661 C 221.950 164.258, 222.829 163.104, 223.676 163.429 C 225.037 163.951, 229.473 156.574, 228.624 155.201 C 228.376 154.799, 225.024 152.946, 221.175 151.085 C 213.509 147.376, 212.740 145.313, 218.836 144.805 C 222.496 144.500, 222.500 144.495, 222.500 139.760 L 222.500 135.020 231.421 129.068 C 240.151 123.243, 240.411 123.145, 243.598 124.477 C 245.389 125.225, 253.158 130.589, 260.862 136.396 L 274.868 146.954 277.974 143.033 L 281.079 139.112 272.289 132.480 L 263.500 125.848 269.604 126.536 C 275.439 127.195, 275.736 127.121, 276.340 124.863 C 276.688 123.563, 276.979 121.263, 276.986 119.750 C 276.998 117.430, 276.570 116.989, 274.250 116.930 C 272.108 116.876, 272.583 116.528, 276.400 115.356 C 279.094 114.529, 282.056 112.917, 282.982 111.774 C 284.685 109.670, 284.569 104.530, 282.842 105.598 C 282.331 105.914, 281.333 105.691, 280.624 105.103 C 279.419 104.103, 276.985 104.579, 262.500 108.647 C 261.326 108.977, 263.380 106.274, 267.478 102.099 L 274.456 94.990 270.733 91.267 L 267.010 87.544 260.080 94.420 L 253.151 101.297 253.325 96.398 L 253.500 91.500 248.826 91.198 C 244.649 90.929, 244.097 91.141, 243.629 93.198 C 243.341 94.464, 243.287 90.260, 243.510 83.856 C 243.958 70.991, 243.989 71.050, 236.835 71.014 C 234.242 71, 234.151 71.205, 233.454 78.648 C 232.516 88.655, 233.582 100.824, 236.035 108.103 C 237.116 111.312, 238 114.110, 238 114.322 C 238 114.533, 234.868 116.789, 231.039 119.335 C 225.172 123.236, 223.942 123.720, 223.210 122.411 C 222.462 121.075, 221.116 121.425, 213.531 124.929 C 208.685 127.168, 204.521 129, 204.277 129 C 204.033 129, 206.342 125.420, 209.408 121.044 L 214.983 113.089 211.647 110.544 C 209.812 109.145, 207.839 108, 207.262 108 C 206.686 108, 203.691 111.688, 200.607 116.195 L 195 124.391 195 118.802 C 195 115.020, 195.438 113.046, 196.356 112.693 C 198.251 111.966, 200.217 104.020, 198.651 103.419 C 198.007 103.173, 194.187 101.965, 190.161 100.735 C 186.136 99.506, 182.775 98.050, 182.692 97.500 C 182.610 96.950, 184.473 96.093, 186.833 95.595 L 191.123 94.690 190.446 90.595 C 189.543 85.131, 189.220 84.743, 186.141 85.412 L 183.500 85.985 185.946 84.243 C 192.617 79.489, 192.663 79.414, 190.817 76.320 C 187.737 71.159, 186.865 71.227, 178.180 77.313 L 170.118 82.963 171.673 79.231 C 172.528 77.179, 174.302 73.377, 175.614 70.783 C 176.926 68.189, 178 65.650, 178 65.142 C 178 64.379, 171.064 61, 169.497 61 C 169.243 61, 167.390 64.600, 165.379 69 C 163.367 73.400, 161.392 77, 160.989 77 C 160.585 77, 159.959 75.145, 159.596 72.877 L 158.937 68.754 154.814 69.414 C 149.502 70.263, 148.789 70.758, 149.527 73.084 C 149.861 74.138, 149.917 75, 149.650 75 C 149.272 75, 145.368 63.739, 142.486 54.336 C 142.215 53.453, 141.165 53.458, 138.131 54.353 C 135.932 55.003, 133.820 55.847, 133.437 56.230 C 132.416 57.250, 137.686 73.426, 141.517 81.034 C 143.336 84.645, 146.438 89.532, 148.412 91.894 C 150.385 94.257, 152 96.602, 152 97.107 C 152 97.612, 145.600 106.457, 137.778 116.763 C 129.956 127.068, 120.154 140.032, 115.997 145.570 C 111.839 151.109, 106.960 157.184, 105.154 159.070 C 103.348 160.957, 99.797 165.425, 97.262 169 C 94.727 172.575, 91.292 177.331, 89.628 179.569 L 86.603 183.637 82.225 181.191 C 78.567 179.146, 77.942 178.367, 78.423 176.452 C 78.989 174.194, 80.419 163.791, 81.370 155 C 81.852 150.549, 84.571 141.099, 93.430 113.086 C 95.937 105.159, 98.725 96.046, 99.626 92.836 C 100.838 88.518, 101.727 87, 103.045 87 C 104.025 87, 112.575 87.915, 122.046 89.034 C 131.516 90.153, 139.388 90.940, 139.539 90.784 C 139.690 90.628, 140.121 88.427, 140.499 85.893 L 141.184 81.285 132.274 80.143 C 127.374 79.514, 122.270 78.981, 120.932 78.958 C 119.248 78.928, 120.318 78.161, 124.414 76.460 C 127.667 75.109, 130.479 73.854, 130.662 73.671 C 130.846 73.488, 130.209 71.449, 129.248 69.140 C 127.709 65.445, 127.201 65.015, 125 65.544 C 122.573 66.128, 122.595 66.047, 125.750 62.775 C 127.537 60.922, 129 58.948, 129 58.389 C 129 57.831, 127.653 56.084, 126.007 54.506 L 123.013 51.639 120.257 54.045 C 118.741 55.369, 115.372 58.461, 112.771 60.918 L 108.042 65.384 110.541 56.045 C 111.915 50.909, 112.918 46.629, 112.770 46.534 C 112.338 46.257, 104.319 44, 103.767 44 C 103.491 44, 102.221 48.050, 100.945 53 C 99.669 57.950, 98.331 62, 97.973 62 C 97.614 62, 96.726 60.200, 96 58 C 95.274 55.800, 94.284 54, 93.800 54 C 91.519 54, 84.983 58.184, 85.539 59.288 C 85.874 59.955, 85.440 59.626, 84.573 58.558 C 83.707 57.489, 81.311 53.329, 79.249 49.312 C 77.187 45.295, 75.050 42.035, 74.500 42.068 C 73.950 42.101, 72.037 42.856, 70.250 43.745 M 148.264 116.764 C 142.634 124.319, 133.063 137.025, 126.996 145 C 120.928 152.975, 114.821 161.975, 113.424 165 C 109.820 172.804, 102.204 185.838, 98.670 190.250 C 97.018 192.312, 95.914 194.247, 96.217 194.550 C 96.520 194.853, 100.308 192.625, 104.634 189.598 C 108.960 186.571, 115.425 182.432, 119 180.401 C 122.575 178.370, 131.575 172.800, 139 168.023 C 146.425 163.246, 159.363 154.950, 167.750 149.589 C 176.137 144.227, 183 139.506, 183 139.098 C 183 138.689, 181.645 135.854, 179.990 132.797 C 176.875 127.047, 173 113.786, 173 108.879 C 173 106.369, 172.461 105.917, 167.818 104.539 C 159.126 101.957, 159.449 101.756, 148.264 116.764 M 183.595 112.793 C 184.322 116.816, 185 118.257, 185 115.780 C 185 114.702, 186.403 114.017, 189.592 113.539 C 192.117 113.160, 194.030 112.705, 193.842 112.528 C 193.654 112.350, 191.121 111.503, 188.213 110.645 L 182.925 109.086 183.595 112.793 M 193.482 153.629 C 191.292 155.075, 186.575 159.067, 183 162.501 C 167.427 177.456, 158.022 183.010, 148.312 182.985 C 141.997 182.968, 140.713 182.471, 139.666 179.640 C 139.027 177.912, 138.712 177.982, 135.239 180.620 C 133.183 182.182, 128.269 186.546, 124.320 190.316 C 120.371 194.087, 115.321 198.570, 113.097 200.279 C 110.873 201.988, 109.214 203.548, 109.411 203.744 C 109.608 203.941, 113.758 202.975, 118.634 201.598 C 127.257 199.163, 131.316 198.305, 137.500 197.608 C 139.150 197.422, 148.600 195.405, 158.500 193.126 C 168.400 190.848, 182.253 187.697, 189.283 186.125 C 196.314 184.553, 202.250 183.083, 202.474 182.859 C 202.698 182.635, 202.387 179.257, 201.783 175.353 C 201.003 170.317, 200.988 166.110, 201.729 160.877 C 202.630 154.520, 202.556 153.327, 201.196 152.250 C 198.964 150.482, 197.983 150.657, 193.482 153.629 M 212 159.406 C 212 160.339, 212.702 160.629, 214.085 160.268 C 215.669 159.853, 215.849 159.520, 214.835 158.877 C 212.891 157.645, 212 157.811, 212 159.406 M 187 195.093 C 150.328 203.647, 142.084 205.965, 128.823 211.448 C 118.182 215.849, 113.522 217.245, 107.823 217.737 C 99.821 218.429, 101.318 219.715, 110.343 219.900 C 113.007 219.955, 119.532 220.861, 124.843 221.913 C 130.154 222.965, 138.775 224.317, 144 224.918 C 149.225 225.518, 163.829 227.341, 176.453 228.969 C 189.077 230.596, 199.640 231.693, 199.928 231.405 C 200.215 231.118, 201.007 228.156, 201.687 224.822 C 202.894 218.905, 206.537 210.399, 211.187 202.642 L 213.500 198.784 209.121 194.892 C 206.713 192.751, 204.463 191.055, 204.121 191.122 C 203.780 191.190, 196.075 192.977, 187 195.093" stroke="none" fill="#010001" fill-rule="evenodd"/><path d="M 70.250 43.745 C 68.463 44.635, 67 45.742, 67 46.206 C 67 47.778, 74.251 61.469, 78.012 67 C 80.070 70.025, 84.328 74.891, 87.476 77.814 C 94.379 84.225, 94.563 81.671, 85.024 111.824 C 81.253 123.746, 77.032 137.325, 75.645 142 C 74.257 146.675, 72.017 153.200, 70.667 156.500 C 69.316 159.800, 67.389 165.762, 66.384 169.750 L 64.557 177 60.934 177 C 55.966 177, 46.831 180.152, 41.904 183.567 C 29.052 192.473, 24.391 208.881, 30.845 222.500 C 41.156 244.261, 71.822 249.110, 90.464 231.926 L 94.748 227.978 103.624 230.124 C 110.208 231.716, 116.373 232.344, 127.500 232.557 C 137.071 232.740, 150.462 233.927, 164.500 235.839 C 176.600 237.486, 189.079 239.128, 192.231 239.487 C 199.442 240.308, 199.900 240.915, 208.554 261.143 C 212.168 269.589, 215.480 276.862, 215.916 277.304 C 216.531 277.928, 220.523 276.626, 224.785 274.411 C 224.942 274.329, 223.255 270.078, 221.037 264.963 C 218.819 259.848, 217.158 255.509, 217.347 255.320 C 217.535 255.131, 219.658 256.535, 222.064 258.438 L 226.438 261.900 229.178 258.700 C 232.540 254.775, 232.629 253.678, 229.750 251.691 C 227.696 250.272, 227.974 250.259, 232.953 251.532 C 235.953 252.299, 238.645 252.688, 238.937 252.397 C 239.931 251.402, 241.794 243.991, 241.146 243.605 C 240.791 243.394, 236.900 242.228, 232.500 241.014 C 228.100 239.799, 224.173 238.500, 223.773 238.126 C 223.373 237.752, 227.085 236.392, 232.023 235.104 C 236.960 233.816, 241 232.530, 241 232.247 C 241 231.742, 238.771 223.725, 238.503 223.266 C 238.428 223.138, 234.367 224.133, 229.478 225.478 C 224.590 226.823, 220.463 227.796, 220.307 227.640 C 220.151 227.484, 221.143 225.839, 222.512 223.984 C 223.880 222.129, 225 220.309, 225 219.939 C 225 219.569, 223.241 218.102, 221.091 216.679 L 217.183 214.092 215.515 216.296 C 213.875 218.464, 213.871 218.459, 215.276 216 C 216.061 214.625, 217.487 211.979, 218.445 210.119 L 220.186 206.739 226.843 213.342 L 233.500 219.946 236.750 217.400 C 238.537 216, 240 214.392, 240 213.826 C 240 213.261, 237.065 209.628, 233.478 205.754 C 229.892 201.880, 227.121 198.545, 227.322 198.344 C 227.523 198.143, 229.615 198.658, 231.970 199.489 C 234.325 200.320, 236.603 201, 237.032 201 C 237.461 201, 238.517 198.930, 239.380 196.399 C 240.884 191.984, 240.868 191.778, 238.985 191.286 C 235.622 190.406, 237.898 189, 242.684 189 L 247.250 189 246.625 185.875 C 246.281 184.156, 246 181.870, 246 180.795 C 246 178.937, 245.488 178.874, 235.750 179.522 L 225.500 180.204 233.225 174.852 C 237.474 171.909, 240.962 169.033, 240.975 168.462 C 240.989 167.891, 239.763 165.954, 238.250 164.156 L 235.500 160.888 228.192 166.053 C 224.173 168.894, 220.700 171.033, 220.475 170.808 C 220.249 170.583, 220.581 168.717, 221.212 166.661 C 221.950 164.258, 222.829 163.104, 223.676 163.429 C 225.037 163.951, 229.473 156.574, 228.624 155.201 C 228.376 154.799, 225.024 152.946, 221.175 151.085 C 213.509 147.376, 212.740 145.313, 218.836 144.805 C 222.496 144.500, 222.500 144.495, 222.500 139.760 L 222.500 135.020 231.421 129.068 C 240.151 123.243, 240.411 123.145, 243.598 124.477 C 245.389 125.225, 253.158 130.589, 260.862 136.396 L 274.868 146.954 277.974 143.033 L 281.079 139.112 272.289 132.480 L 263.500 125.848 269.604 126.536 C 275.439 127.195, 275.736 127.121, 276.340 124.863 C 276.688 123.563, 276.979 121.263, 276.986 119.750 C 276.998 117.430, 276.570 116.989, 274.250 116.930 C 272.108 116.876, 272.583 116.528, 276.400 115.356 C 279.094 114.529, 282.056 112.917, 282.982 111.774 C 284.685 109.670, 284.569 104.530, 282.842 105.598 C 282.331 105.914, 281.333 105.691, 280.624 105.103 C 279.419 104.103, 276.985 104.579, 262.500 108.647 C 261.326 108.977, 263.380 106.274, 267.478 102.099 L 274.456 94.990 270.733 91.267 L 267.010 87.544 260.080 94.420 L 253.151 101.297 253.325 96.398 L 253.500 91.500 248.826 91.198 C 244.649 90.929, 244.097 91.141, 243.629 93.198 C 243.341 94.464, 243.287 90.260, 243.510 83.856 C 243.958 70.991, 243.989 71.050, 236.835 71.014 C 234.242 71, 234.151 71.205, 233.454 78.648 C 232.516 88.655, 233.582 100.824, 236.035 108.103 C 237.116 111.312, 238 114.110, 238 114.322 C 238 114.533, 234.868 116.789, 231.039 119.335 C 225.172 123.236, 223.942 123.720, 223.210 122.411 C 222.462 121.075, 221.116 121.425, 213.531 124.929 C 208.685 127.168, 204.521 129, 204.277 129 C 204.033 129, 206.342 125.420, 209.408 121.044 L 214.983 113.089 211.647 110.544 C 209.812 109.145, 207.839 108, 207.262 108 C 206.686 108, 203.691 111.688, 200.607 116.195 L 195 124.391 195 118.802 C 195 115.020, 195.438 113.046, 196.356 112.693 C 198.251 111.966, 200.217 104.020, 198.651 103.419 C 198.007 103.173, 194.187 101.965, 190.161 100.735 C 186.136 99.506, 182.775 98.050, 182.692 97.500 C 182.610 96.950, 184.473 96.093, 186.833 95.595 L 191.123 94.690 190.446 90.595 C 189.543 85.131, 189.220 84.743, 186.141 85.412 L 183.500 85.985 185.946 84.243 C 192.617 79.489, 192.663 79.414, 190.817 76.320 C 187.737 71.159, 186.865 71.227, 178.180 77.313 L 170.118 82.963 171.673 79.231 C 172.528 77.179, 174.302 73.377, 175.614 70.783 C 176.926 68.189, 178 65.650, 178 65.142 C 178 64.379, 171.064 61, 169.497 61 C 169.243 61, 167.390 64.600, 165.379 69 C 163.367 73.400, 161.392 77, 160.989 77 C 160.585 77, 159.959 75.145, 159.596 72.877 L 158.937 68.754 154.814 69.414 C 149.502 70.263, 148.789 70.758, 149.527 73.084 C 149.861 74.138, 149.917 75, 149.650 75 C 149.272 75, 145.368 63.739, 142.486 54.336 C 142.215 53.453, 141.165 53.458, 138.131 54.353 C 135.932 55.003, 133.820 55.847, 133.437 56.230 C 132.416 57.250, 137.686 73.426, 141.517 81.034 C 143.336 84.645, 146.438 89.532, 148.412 91.894 C 150.385 94.257, 152 96.602, 152 97.107 C 152 97.612, 145.600 106.457, 137.778 116.763 C 129.956 127.068, 120.154 140.032, 115.997 145.570 C 111.839 151.109, 106.960 157.184, 105.154 159.070 C 103.348 160.957, 99.797 165.425, 97.262 169 C 94.727 172.575, 91.292 177.331, 89.628 179.569 L 86.603 183.637 82.225 181.191 C 78.567 179.146, 77.942 178.367, 78.423 176.452 C 78.989 174.194, 80.419 163.791, 81.370 155 C 81.852 150.549, 84.571 141.099, 93.430 113.086 C 95.937 105.159, 98.725 96.046, 99.626 92.836 C 100.838 88.518, 101.727 87, 103.045 87 C 104.025 87, 112.575 87.915, 122.046 89.034 C 131.516 90.153, 139.388 90.940, 139.539 90.784 C 139.690 90.628, 140.121 88.427, 140.499 85.893 L 141.184 81.285 132.274 80.143 C 127.374 79.514, 122.270 78.981, 120.932 78.958 C 119.248 78.928, 120.318 78.161, 124.414 76.460 C 127.667 75.109, 130.479 73.854, 130.662 73.671 C 130.846 73.488, 130.209 71.449, 129.248 69.140 C 127.709 65.445, 127.201 65.015, 125 65.544 C 122.573 66.128, 122.595 66.047, 125.750 62.775 C 127.537 60.922, 129 58.948, 129 58.389 C 129 57.831, 127.653 56.084, 126.007 54.506 L 123.013 51.639 120.257 54.045 C 118.741 55.369, 115.372 58.461, 112.771 60.918 L 108.042 65.384 110.541 56.045 C 111.915 50.909, 112.918 46.629, 112.770 46.534 C 112.338 46.257, 104.319 44, 103.767 44 C 103.491 44, 102.221 48.050, 100.945 53 C 99.669 57.950, 98.331 62, 97.973 62 C 97.614 62, 96.726 60.200, 96 58 C 95.274 55.800, 94.284 54, 93.800 54 C 91.519 54, 84.983 58.184, 85.539 59.288 C 85.874 59.955, 85.440 59.626, 84.573 58.558 C 83.707 57.489, 81.311 53.329, 79.249 49.312 C 77.187 45.295, 75.050 42.035, 74.500 42.068 C 73.950 42.101, 72.037 42.856, 70.250 43.745 M 148.264 116.764 C 142.634 124.319, 133.063 137.025, 126.996 145 C 120.928 152.975, 114.821 161.975, 113.424 165 C 109.820 172.804, 102.204 185.838, 98.670 190.250 C 97.018 192.312, 95.914 194.247, 96.217 194.550 C 96.520 194.853, 100.308 192.625, 104.634 189.598 C 108.960 186.571, 115.425 182.432, 119 180.401 C 122.575 178.370, 131.575 172.800, 139 168.023 C 146.425 163.246, 159.363 154.950, 167.750 149.589 C 176.137 144.227, 183 139.506, 183 139.098 C 183 138.689, 181.645 135.854, 179.990 132.797 C 176.875 127.047, 173 113.786, 173 108.879 C 173 106.369, 172.461 105.917, 167.818 104.539 C 159.126 101.957, 159.449 101.756, 148.264 116.764 M 183.595 112.793 C 184.322 116.816, 185 118.257, 185 115.780 C 185 114.702, 186.403 114.017, 189.592 113.539 C 192.117 113.160, 194.030 112.705, 193.842 112.528 C 193.654 112.350, 191.121 111.503, 188.213 110.645 L 182.925 109.086 183.595 112.793 M 193.482 153.629 C 191.292 155.075, 186.575 159.067, 183 162.501 C 167.427 177.456, 158.022 183.010, 148.312 182.985 C 141.997 182.968, 140.713 182.471, 139.666 179.640 C 139.027 177.912, 138.712 177.982, 135.239 180.620 C 133.183 182.182, 128.269 186.546, 124.320 190.316 C 120.371 194.087, 115.321 198.570, 113.097 200.279 C 110.873 201.988, 109.214 203.548, 109.411 203.744 C 109.608 203.941, 113.758 202.975, 118.634 201.598 C 127.257 199.163, 131.316 198.305, 137.500 197.608 C 139.150 197.422, 148.600 195.405, 158.500 193.126 C 168.400 190.848, 182.253 187.697, 189.283 186.125 C 196.314 184.553, 202.250 183.083, 202.474 182.859 C 202.698 182.635, 202.387 179.257, 201.783 175.353 C 201.003 170.317, 200.988 166.110, 201.729 160.877 C 202.630 154.520, 202.556 153.327, 201.196 152.250 C 198.964 150.482, 197.983 150.657, 193.482 153.629 M 212 159.406 C 212 160.339, 212.702 160.629, 214.085 160.268 C 215.669 159.853, 215.849 159.520, 214.835 158.877 C 212.891 157.645, 212 157.811, 212 159.406 M 187 195.093 C 150.328 203.647, 142.084 205.965, 128.823 211.448 C 118.182 215.849, 113.522 217.245, 107.823 217.737 C 99.821 218.429, 101.318 219.715, 110.343 219.900 C 113.007 219.955, 119.532 220.861, 124.843 221.913 C 130.154 222.965, 138.775 224.317, 144 224.918 C 149.225 225.518, 163.829 227.341, 176.453 228.969 C 189.077 230.596, 199.640 231.693, 199.928 231.405 C 200.215 231.118, 201.007 228.156, 201.687 224.822 C 202.894 218.905, 206.537 210.399, 211.187 202.642 L 213.500 198.784 209.121 194.892 C 206.713 192.751, 204.463 191.055, 204.121 191.122 C 203.780 191.190, 196.075 192.977, 187 195.093" stroke="none" fill="#010001" fill-rule="evenodd"/></svg>